# xmcd
#
# Track frame offsets:
#	150
#	6712
#	13197
#	28194
#	41710
#	67652
#	74400
#	79617
#	107520
#	118085
#	138537
#	161595
#	180470
#	195587
#	204310
#	222687
#	242622
#	249797
#	261000
#
# Disc length: 3578 seconds
#
# Revision: 0
# Processed by: cddbd v1.5.2PL0 Copyright (c) Steve Scherf et al.
# Submitted via: dBpowerAMP V4.0
#
DISCID=0b0df813
DTITLE=Bobby Blue Bland - Live On Beale Street
DYEAR=1998
DGENRE=Blues
TTITLE0=Intro, Bobby Bland Orch.
TTITLE1=When Your Love Is Not Around
TTITLE2=That's The Love Is
TTITLE3=Love Of Mine
TTITLE4=As Soon As The Weather Breaks
TTITLE5=Farther Up The Road
TTITLE6=I Pity The Fool
TTITLE7=Ain't No Sunshine When She's Gone
TTITLE8=St. James Infirmary
TTITLE9=I'll Take Care Of You
TTITLE10=Get Your Money Where You Spend Your Time
TTITLE11=You've Got To Hurt Before You Heal
TTITLE12=Sunday Morning Love
TTITLE13=If You're Gonna Walk On My Love
TTITLE14=Bobby Rush, Johnny Taylor Intro
TTITLE15=Stromy Monday
TTITLE16=Medley
TTITLE17=Members Only
TTITLE18=24 Hours A Day
EXTD=
EXTT0=
EXTT1=
EXTT2=
EXTT3=
EXTT4=
EXTT5=
EXTT6=
EXTT7=
EXTT8=
EXTT9=
EXTT10=
EXTT11=
EXTT12=
EXTT13=
EXTT14=
EXTT15=
EXTT16=
EXTT17=
EXTT18=
PLAYORDER=
